<?xml version="1.0" encoding="UTF-8" standalone="no"?>
<svg xmlns="http://www.w3.org/2000/svg" width="1600" height="500" viewBox="0 0 1600 500">
    <defs>
        <linearGradient id="a" x1="0" x2="1" y1="0" y2="0" gradientTransform="scale(163.6211 -163.6211) rotate(-39.005 -4.945 -4.387)" gradientUnits="userSpaceOnUse" spreadMethod="pad">
            <stop offset="0" stop-color="#00a100"/>
            <stop offset="1" stop-color="#ffca00"/>
        </linearGradient>
        <linearGradient id="b" x1="0" x2="1" y1="0" y2="0" gradientTransform="scale(-197.6491 197.6491) rotate(-45 3.454 4.754)" gradientUnits="userSpaceOnUse" spreadMethod="pad">
            <stop offset="0" stop-color="#00b600"/>
            <stop offset="1" stop-color="#00761e"/>
        </linearGradient>
        <linearGradient id="c" x1="0" x2="1" y1="0" y2="0" gradientTransform="scale(118.37006 -118.37006) rotate(54.758 6.528 .015)" gradientUnits="userSpaceOnUse" spreadMethod="pad">
            <stop offset="0" stop-color="#00a100"/>
            <stop offset="1" stop-color="#ffca00"/>
        </linearGradient>
        <linearGradient id="d" x1="0" x2="1" y1="0" y2="0" gradientTransform="matrix(101.55006 0 0 -101.55006 404.789 584.607)" gradientUnits="userSpaceOnUse" spreadMethod="pad">
            <stop offset="0" stop-color="#00b600"/>
            <stop offset="1" stop-color="#00761e"/>
        </linearGradient>
        <linearGradient id="f" x1="0" x2="1" y1="0" y2="0" gradientTransform="matrix(91.1295 0 0 -91.1295 225.07 741.39)" gradientUnits="userSpaceOnUse" spreadMethod="pad">
            <stop offset="0" stop-color="#00a100"/>
            <stop offset="1" stop-color="#ffca00"/>
        </linearGradient>
        <linearGradient id="g" x1="0" x2="1" y1="0" y2="0" gradientTransform="matrix(68.79952 0 0 -68.79952 101.715 744.34)" gradientUnits="userSpaceOnUse" spreadMethod="pad">
            <stop offset="0" stop-color="#00b600"/>
            <stop offset="1" stop-color="#00761e"/>
        </linearGradient>
        <linearGradient id="h" x1="0" x2="1" y1="0" y2="0" gradientTransform="matrix(113.92645 0 0 -113.92645 152.84 760.933)" gradientUnits="userSpaceOnUse" spreadMethod="pad">
            <stop offset="0" stop-color="#00b600"/>
            <stop offset="1" stop-color="#00761e"/>
        </linearGradient>
        <linearGradient id="i" x1="0" x2="1" y1="0" y2="0" gradientTransform="scale(-60.22994 60.22994) rotate(66.342 -10.817 1.264)" gradientUnits="userSpaceOnUse" spreadMethod="pad">
            <stop offset="0" stop-color="#00a100"/>
            <stop offset="1" stop-color="#ffca00"/>
        </linearGradient>
        <linearGradient id="j" x1="0" x2="1" y1="0" y2="0" gradientTransform="scale(-161.65982 161.65982) rotate(-39.329 4.878 5.293)" gradientUnits="userSpaceOnUse" spreadMethod="pad">
            <stop offset="0" stop-color="#00a100"/>
            <stop offset="1" stop-color="#ffca00"/>
        </linearGradient>
        <linearGradient id="k" x1="0" x2="1" y1="0" y2="0" gradientTransform="matrix(53.5335 0 0 -53.5335 98.781 673.854)" gradientUnits="userSpaceOnUse" spreadMethod="pad">
            <stop offset="0" stop-color="#00b600"/>
            <stop offset="1" stop-color="#00761e"/>
        </linearGradient>
        <linearGradient id="l" x1="0" x2="1" y1="0" y2="0" gradientTransform="matrix(120.66902 0 0 -120.66902 118.032 602.165)" gradientUnits="userSpaceOnUse" spreadMethod="pad">
            <stop offset="0" stop-color="#00b600"/>
            <stop offset="1" stop-color="#00761e"/>
        </linearGradient>
        <linearGradient id="m" x1="0" x2="1" y1="0" y2="0" gradientTransform="matrix(66.98978 0 0 -66.98978 204.184 601.187)" gradientUnits="userSpaceOnUse" spreadMethod="pad">
            <stop offset="0" stop-color="#00a100"/>
            <stop offset="1" stop-color="#ffca00"/>
        </linearGradient>
        <linearGradient id="n" x1="0" x2="1" y1="0" y2="0" gradientTransform="matrix(81.52625 0 0 -81.52625 186.408 535.97)" gradientUnits="userSpaceOnUse" spreadMethod="pad">
            <stop offset="0" stop-color="#00b600"/>
            <stop offset="1" stop-color="#00761e"/>
        </linearGradient>
        <clipPath id="e" clipPathUnits="userSpaceOnUse">
            <path d="M0 864.338h1245.62V0H0z"/>
        </clipPath>
    </defs>
    <path fill="url(#a)" d="M287.229 690.543h-.044a123.196 123.196 0 01-2.205-23.235v-.248c0-.408.016-.788.03-1.182 0-.657 0-1.313.029-1.97.014-.905.059-1.81.103-2.7v-.365a123.223 123.223 0 013.195-22.404c15.85 79.63 86.11 139.628 170.38 139.628 1.123 0 2.232-.014 3.341-.043-16.258 7.896-34.501 12.317-53.795 12.317-60.043 0-110.074-42.951-121.034-99.798" transform="matrix(1.31784 0 0 -1.31784 -30.178 1101.547)"/>
    <path fill="url(#b)" d="M288.337 638.439a121.144 121.144 0 0110.611-28.401h.131c8.67-16.506 21.002-30.838 35.888-41.872a144.882 144.882 0 005.27 36.531c-14.595 15.849-23.731 36.822-24.388 59.911-.015.292-.015.598-.03.905-.014.599-.014 1.182-.014 1.795 0 .92.014 1.854.044 2.773 0 .234.014.467.029.701.015.554.044 1.124.072 1.678.03.54.074 1.05.103 1.591 0 .102.014.234.029.335 3.737 47.638 43.58 85.147 92.181 85.147 22.942 0 43.929-8.363 60.086-22.185 24.563-2.408 41.42-10.917 52.876-20.564a122.11 122.11 0 01-3.619 7.531h-.131c-12.23 23.293-31.7 42.179-55.417 53.709-1.109.029-2.218.043-3.341.043-84.27 0-154.53-59.998-170.38-139.628" transform="matrix(1.31784 0 0 -1.31784 -30.178 1101.547)"/>
    <path fill="url(#c)" d="M334.967 568.166c20.492-15.178 45.857-24.154 73.31-24.154 2.452 0 4.874.073 7.283.219a115.417 115.417 0 00-10.771 30.663c-25.526.934-48.396 12.231-64.552 29.803a144.882 144.882 0 01-5.27-36.531" transform="matrix(1.31784 0 0 -1.31784 -30.178 1101.547)"/>
    <path fill="url(#d)" d="M408.277 574.821a69.6 69.6 0 00-3.488.073 115.417 115.417 0 0110.771-30.663h.014c37.013 2.16 69.631 20.651 90.765 48.381l-15.821 32.371c-15.368-29.788-46.426-50.162-82.241-50.162" transform="matrix(1.31784 0 0 -1.31784 -30.178 1101.547)"/>
    <g clip-path="url(#e)" transform="matrix(1.31784 0 0 -1.31784 -30.178 1101.547)">
        <path fill="#00b600" d="M819.197 740.053c2.054 0 3.879.51 5.478 1.531 1.509.955 2.675 2.278 3.502 3.97h-4.189c-.596-.737-1.298-1.28-2.106-1.633a6.386 6.386 0 00-2.58-.527c-1.879 0-3.455.623-4.727 1.871-1.273 1.247-1.91 2.758-1.91 4.532 0 1.691.628 3.162 1.883 4.41 1.256 1.246 2.831 1.87 4.726 1.87 1.107 0 2.1-.234 2.976-.703.702-.369 1.344-.905 1.924-1.608h4.107c-.825 1.791-2.028 3.181-3.607 4.17-1.58.987-3.39 1.481-5.426 1.481-3.177 0-5.74-1.088-7.688-3.265-1.669-1.875-2.502-3.994-2.502-6.355 0-2.41.842-4.57 2.527-6.478 1.932-2.177 4.47-3.266 7.611-3.266m-20.802 8.539h2.923c.843 0 1.523-.213 2.04-.64.519-.427.777-1.009.777-1.745 0-.72-.258-1.294-.776-1.72-.518-.428-1.198-.64-2.041-.64h-2.923zm7.558-6.504c1.193 1.055 1.79 2.428 1.79 4.12 0 1.59-.475 2.895-1.422 3.917-1.123 1.205-2.8 1.808-5.03 1.808h-2.896v7.158h-3.607v-18.586h6.504c1.913 0 3.466.527 4.66 1.583m-41.659 11.979l2.212-5.425h-4.424zm-5.583-13.562l2.002 4.797h7.164l2-4.797h3.976l-8.11 18.585h-2.897l-8.11-18.585zm24.806 13.814l5.32-13.813h3.975l-7.714 18.585h-3.162l-7.714-18.585h3.976zm50.691-5.676l6.056-8.138h4.32l-7.348 9.444 7.347 9.142h-4.319l-6.056-8.062v8.062H830.6v-18.586h3.607zm40.157 11.452c1.3 0 2.372.326 3.213.98.842.653 1.353 1.498 1.528 2.537h-3.03c-.07-.436-.262-.754-.577-.955-.316-.2-.694-.302-1.134-.302-.438 0-.816.105-1.131.315-.316.21-.51.523-.58.942h-3.028c.175-1.039.689-1.884 1.54-2.538.85-.653 1.918-.979 3.199-.979m-15.14-6.53v-13.06h3.607v18.586h-3.607l-8.691-13.06v13.06h-3.607v-18.586h3.607zm19.486 0v-13.06h3.607v18.586h-3.607l-8.69-13.06v13.06h-3.607v-18.586h3.607zM747.36 755.75h2.134c.755 0 1.387-.125 1.895-.376.79-.386 1.186-1.072 1.186-2.06 0-.787-.246-1.39-.738-1.808-.49-.419-1.272-.628-2.343-.628h-2.134zm0-8.213h1.844c2.546 0 4.423.67 5.635 2.01.895.988 1.343 2.235 1.343 3.742 0 1.39-.385 2.58-1.158 3.566-1.177 1.491-3.117 2.236-5.82 2.236h-5.45v-18.586h3.606zm-18.406-7.032h3.95l8.822 18.586h-3.951l-4.503-9.896-5.135 9.896h-4.37l7.477-13.864zm195.824 4.369c-1.273-1.247-2.866-1.871-4.78-1.871-1.861 0-3.432.62-4.713 1.858-1.282 1.24-1.923 2.746-1.923 4.52 0 1.759.633 3.249 1.897 4.472 1.264 1.222 2.852 1.833 4.766 1.833 1.896 0 3.48-.615 4.753-1.846 1.272-1.23 1.909-2.716 1.909-4.458 0-1.758-.637-3.261-1.91-4.508m2.556 11.327c-1.976 1.883-4.412 2.825-7.308 2.825-2.897 0-5.332-.942-7.308-2.825-1.974-1.884-2.962-4.182-2.962-6.894 0-2.696.988-4.978 2.962-6.844 1.976-1.867 4.41-2.801 7.308-2.801 2.896 0 5.332.934 7.308 2.8 1.973 1.867 2.96 4.149 2.96 6.845 0 2.712-.987 5.01-2.96 6.894m33.666-16.087l8.82 18.586h-3.95l-4.502-9.896-5.135 9.896h-4.371l7.478-13.864-2.291-4.722zm-18.909 15.571c1.108 0 2.099-.233 2.977-.702.702-.369 1.343-.905 1.922-1.608h4.108c-.824 1.791-2.028 3.181-3.607 4.17-1.58.987-3.39 1.481-5.425 1.481-3.177 0-5.74-1.088-7.69-3.265-1.668-1.875-2.502-3.994-2.502-6.355 0-2.41.843-4.57 2.529-6.479 1.93-2.177 4.468-3.265 7.61-3.265 2.053 0 3.879.51 5.478 1.531 1.509.955 2.676 2.278 3.503 3.97h-4.188c-.597-.737-1.3-1.28-2.107-1.634a6.402 6.402 0 00-2.58-.527c-1.88 0-3.454.624-4.727 1.871-1.273 1.248-1.91 2.76-1.91 4.533 0 1.691.628 3.161 1.883 4.41 1.256 1.246 2.832 1.87 4.727 1.87m111.23 3.014h-10.822v-3.341h3.608v-15.245h3.607v15.245h3.607zm5.504-10.5h2.344c1.229 0 2.098-.317 2.608-.953.315-.385.474-.87.474-1.456 0-.972-.466-1.65-1.396-2.035-.492-.201-1.054-.301-1.686-.301h-2.344zm0 7.159h1.686c.65 0 1.177-.091 1.58-.276.65-.301.974-.846.974-1.633 0-.618-.228-1.092-.685-1.42-.455-.325-1.08-.488-1.87-.488h-1.685zm-3.607-15.245h4.87c2.863 0 4.944.602 6.242 1.808 1.019.954 1.528 2.236 1.528 3.843 0 1.055-.29 1.985-.87 2.788-.58.803-1.395 1.373-2.448 1.708.509.268.93.603 1.264 1.004.579.704.868 1.55.868 2.537 0 1.624-.614 2.864-1.842 3.717-1.141.787-2.783 1.18-4.924 1.18h-4.688zm32.572 7.786h7.11v-7.786h3.61V758.7h-3.61v-7.46h-7.11v7.46h-3.606v-18.586h3.607zm62.28 11.804c1.298 0 2.37.326 3.211.98.843.653 1.353 1.498 1.528 2.537h-3.028c-.07-.436-.264-.754-.579-.955-.316-.2-.694-.302-1.133-.302-.439 0-.817.105-1.133.315-.315.21-.508.523-.578.942h-3.029c.175-1.039.69-1.884 1.541-2.538.85-.653 1.917-.979 3.2-.979m-154.944-11.452l2.211 5.425 2.212-5.425zm7.795-8.138h3.975l-8.11 18.586h-2.896l-8.11-18.586h3.974l2.002 4.797h7.163zm13.587 14.869c.79-.386 1.185-1.072 1.185-2.06 0-.787-.246-1.39-.738-1.808-.49-.419-1.272-.628-2.343-.628h-2.133v4.872h2.133c.755 0 1.387-.125 1.896-.376m-7.637 3.717v-18.586h3.608v7.032h1.844c2.546 0 4.423.67 5.635 2.009.894.989 1.342 2.236 1.342 3.743 0 1.39-.385 2.579-1.158 3.567-1.176 1.49-3.116 2.235-5.819 2.235zm16.249-2.939c-1.669-1.876-2.503-3.994-2.503-6.355 0-2.41.842-4.57 2.528-6.479 1.931-2.177 4.468-3.266 7.61-3.266 2.054 0 3.88.511 5.478 1.532 1.51.955 2.676 2.278 3.502 3.97h-4.188a5.546 5.546 0 00-2.105-1.634 6.407 6.407 0 00-2.58-.527c-1.88 0-3.455.624-4.729 1.871-1.272 1.248-1.909 2.76-1.909 4.533 0 1.691.63 3.161 1.883 4.41 1.256 1.246 2.832 1.87 4.727 1.87 1.106 0 2.098-.234 2.975-.703.703-.369 1.345-.905 1.923-1.608h4.108c-.825 1.791-2.027 3.181-3.607 4.17-1.58.987-3.39 1.48-5.425 1.48-3.178 0-5.74-1.087-7.689-3.264m45.371-15.647h10.455v3.341h-6.847v4.27h6.558v3.339h-6.558v4.295h6.847v3.341h-10.454zm35.208 7.786h7.109v-7.786h3.609V758.7h-3.609v-7.46h-7.109v7.46h-3.607v-18.586h3.607zm48.716 10.8l-8.69-13.06v13.06h-3.607v-18.586h3.607l8.69 13.06v-13.06h3.607V758.7zm-30.81-10.5h2.924c.842 0 1.523-.212 2.041-.64.518-.426.776-1.007.776-1.744 0-.72-.258-1.294-.776-1.722-.518-.426-1.199-.64-2.04-.64h-2.925zm7.558-6.503c1.195 1.054 1.79 2.428 1.79 4.119 0 1.59-.473 2.896-1.42 3.918-1.125 1.205-2.8 1.808-5.03 1.808h-2.898v7.158h-3.607v-18.586h6.505c1.913 0 3.466.527 4.66 1.583m3.766-1.583h3.607V758.7h-3.607zm-235.734 0h3.608v15.245h6.137v3.341h-9.745zm72.812 3.341l4.819 10.473 4.819-10.473zm15.432-6.857v6.857h-1.818l-7.215 15.245h-3.16l-7.215-15.245h-1.87v-6.857h3.608v3.516h14.06v-3.516zM746.85 722.403v3.341h-10.454v-18.586h10.454v3.34h-6.847v4.271h6.557v3.34h-6.557v4.294zm137.985-15.245v18.586h-3.607v-8.213h-3.345c-.404 0-.802.041-1.198.125a2.265 2.265 0 00-.988.452c-.333.285-.53.587-.592.904-.062.318-.092.73-.092 1.231v5.501h-3.608v-5.953c0-.887.097-1.64.29-2.26a4.342 4.342 0 011.474-2.16c.632-.486 1.406-.82 2.317-1.005.615-.117 1.423-.176 2.424-.176h3.318v-7.032zm-16.327 0v18.586h-3.607l-8.69-13.06v13.06h-3.607v-18.586h3.607l8.69 13.06v-13.06zm-54.958 15.245v3.341h-10.453v-18.586h10.454v3.34h-6.847v4.271h6.557v3.34h-6.557v4.294zm35.472-15.245v18.586h-3.608v-7.46h-7.11v7.46h-3.608v-18.586h3.607v7.786h7.111v-7.786zm62.303 15.572c1.107 0 2.099-.235 2.976-.703.702-.369 1.344-.905 1.923-1.608h4.108c-.825 1.791-2.028 3.181-3.607 4.17-1.58.986-3.39 1.48-5.426 1.48-3.177 0-5.74-1.087-7.69-3.264-1.667-1.876-2.5-3.994-2.5-6.355 0-2.41.84-4.57 2.527-6.479 1.932-2.177 4.468-3.266 7.61-3.266 2.055 0 3.88.511 5.479 1.532 1.509.955 2.676 2.278 3.502 3.97h-4.188c-.596-.738-1.298-1.282-2.106-1.634a6.407 6.407 0 00-2.581-.527c-1.88 0-3.454.624-4.726 1.871-1.273 1.247-1.91 2.758-1.91 4.533 0 1.691.628 3.161 1.884 4.408 1.254 1.248 2.83 1.871 4.725 1.871m-22.909-15.571h10.454v3.34h-6.847v4.271h6.557v3.34h-6.557v4.294h6.847v3.341h-10.454zm73.652 5.526v13.06h-3.607v-18.585h3.607l8.69 13.059v-13.06h3.607v18.586h-3.607zm1.146 15.044c-.852.653-1.366 1.498-1.54 2.537h3.028c.07-.42.263-.732.58-.942.314-.21.692-.315 1.13-.315.44 0 .818.102 1.134.303.316.2.508.518.578.954h3.03c-.176-1.04-.687-1.884-1.529-2.537-.84-.653-1.912-.98-3.213-.98-1.28 0-2.347.327-3.198.98m-20.632-15.044v13.06h-3.607v-18.585h3.607l8.69 13.059v-13.06h3.608v18.586h-3.607zm-10.27 13.06l-6.056-8.062v8.062h-3.607v-18.586h3.607v8.138l6.056-8.138h4.32l-7.348 9.444 7.347 9.142zm-208.767 0l-7.716-18.586h3.977l5.319 13.814 5.319-13.814h3.976l-7.715 18.586zm41.159-17.507c1.51.954 2.676 2.278 3.502 3.97h-4.188c-.596-.737-1.298-1.281-2.106-1.633a6.402 6.402 0 00-2.58-.527c-1.879 0-3.455.623-4.727 1.87-1.273 1.247-1.91 2.758-1.91 4.533 0 1.691.63 3.161 1.883 4.408 1.256 1.248 2.831 1.871 4.726 1.871 1.107 0 2.1-.234 2.976-.703.703-.368 1.344-.904 1.924-1.607h4.107c-.825 1.791-2.027 3.181-3.607 4.17-1.58.986-3.39 1.48-5.426 1.48-3.177 0-5.74-1.088-7.688-3.264-1.668-1.876-2.502-3.994-2.502-6.355 0-2.41.842-4.57 2.528-6.479 1.932-2.177 4.468-3.266 7.61-3.266 2.054 0 3.88.511 5.478 1.532m25.674 14.166h3.607v-15.245h3.608v15.245h3.607v3.341h-10.822zm28.966-15.245l4.609 6.43 4.634-6.43h4.213l-6.741 9.292 6.74 9.294h-4.212l-4.634-6.456-4.61 6.456h-4.212l6.715-9.294-6.715-9.292zm-34.694 4.76c-1.273-1.247-2.865-1.871-4.778-1.871-1.862 0-3.434.62-4.714 1.859-1.282 1.239-1.924 2.745-1.924 4.52 0 1.759.633 3.249 1.897 4.47 1.264 1.223 2.853 1.834 4.767 1.834 1.895 0 3.48-.615 4.752-1.846 1.272-1.23 1.91-2.716 1.91-4.458 0-1.758-.638-3.261-1.91-4.508m2.555 11.327c-1.975 1.883-4.412 2.825-7.307 2.825-2.898 0-5.333-.942-7.308-2.825-1.975-1.884-2.963-4.182-2.963-6.894 0-2.696.988-4.978 2.963-6.844 1.975-1.867 4.41-2.801 7.308-2.801 2.895 0 5.332.934 7.307 2.8 1.975 1.867 2.962 4.149 2.962 6.845 0 2.712-.987 5.01-2.962 6.894m338.341-.842h3.607v-15.245h3.607v15.245h3.608v3.34h-10.822zm-14.221-9.72v13.06h-3.607v-18.585h3.607l8.69 13.06v-13.06h3.608v18.585h-3.607zm38.975 9.72h3.607v-15.245h3.607v15.245h3.608v3.34H1150.3zm-12.035-15.245h10.453v3.341h-6.846v4.269h6.558v3.34h-6.558v4.295h6.846v3.341h-10.453zm-110.678 5.525v13.06h-3.607v-18.585h3.607l8.69 13.06v-13.06h3.608v18.585h-3.608zm-10.797 5.601h-7.11v7.46h-3.607v-18.586h3.607v7.785h7.11v-7.785h3.609v18.585h-3.61zm-21.2-2.436l-5.134 9.896h-4.37l7.478-13.864-2.291-4.722h3.95l8.822 18.586h-3.951zm55.512-5.048c-.492-.201-1.052-.301-1.684-.301h-2.345v4.746h2.345c1.228 0 2.097-.318 2.606-.953.316-.386.474-.871.474-1.457 0-.972-.465-1.65-1.396-2.035m-4.029 11.603h1.686c.65 0 1.176-.091 1.58-.276.65-.301.974-.846.974-1.632 0-.62-.229-1.093-.685-1.42-.456-.326-1.08-.49-1.869-.49h-1.686zm5.715-5.098c.51.268.93.603 1.264 1.004.58.704.87 1.55.87 2.538 0 1.623-.616 2.863-1.845 3.716-1.14.787-2.782 1.18-4.924 1.18h-4.688v-18.585h4.873c2.862 0 4.942.603 6.241 1.808 1.018.954 1.527 2.236 1.527 3.843 0 1.055-.29 1.985-.869 2.788-.58.803-1.396 1.373-2.449 1.708m27.728.854c-.491-.419-1.272-.628-2.343-.628h-2.133v4.872h2.133c.755 0 1.386-.125 1.895-.376.79-.386 1.186-1.072 1.186-2.06 0-.787-.246-1.39-.738-1.808m-2.632 7.584h-5.452v-18.585h3.608v7.032h1.844c2.544 0 4.423.67 5.635 2.009.894.989 1.342 2.236 1.342 3.743 0 1.39-.386 2.579-1.158 3.567-1.176 1.489-3.117 2.234-5.82 2.234m18.511-3.013c1.107 0 2.1-.235 2.976-.703.702-.369 1.344-.905 1.922-1.608h4.108c-.824 1.791-2.028 3.181-3.607 4.17-1.58.987-3.389 1.481-5.425 1.481-3.177 0-5.74-1.088-7.689-3.265-1.668-1.875-2.5-3.994-2.5-6.355 0-2.41.84-4.57 2.526-6.479 1.931-2.177 4.468-3.265 7.61-3.265 2.053 0 3.88.51 5.478 1.531 1.51.955 2.676 2.278 3.502 3.97h-4.187a5.552 5.552 0 00-2.106-1.634 6.407 6.407 0 00-2.58-.527c-1.88 0-3.455.624-4.728 1.872-1.273 1.247-1.909 2.758-1.909 4.532 0 1.691.627 3.161 1.883 4.41 1.255 1.246 2.831 1.87 4.726 1.87m-37.656-15.572h10.454v3.341h-6.847v4.269h6.558v3.34h-6.558v4.295h6.847v3.341h-10.454z"/>
        <path fill="#00761e" d="M731.993 616.692c4.177 0 7.358 1.79 13.124 11.865l.265.464-34.201 62.902h21.343l23.53-43.284 23.529 43.284h21.343l-37.449-68.867c-6.694-12.394-15.046-26.248-31.417-26.248-5.369 0-10.407 1.326-15.179 3.976l9.677 17.367a10.629 10.629 0 015.435-1.46m80.953-19.883v95.115h66.879V673.56h-46.994v-76.753zm151.58 95.047v-94.982h-19.82v76.688h-29.295v-45.668c0-8.617-3.05-15.973-9.08-22.003-6.032-6.033-13.39-9.082-21.94-9.082-5.368 0-10.472 1.326-15.178 3.976l9.677 17.299c1.657-.927 3.513-1.391 5.436-1.391 3.114 0 5.765 1.127 7.953 3.315 2.187 2.188 3.314 4.837 3.314 7.954v63.894zm96.398.068V673.56h-31.284v-76.753h-19.885v76.753h-31.219v18.362zm29.649-75.231c4.174 0 7.356 1.79 13.123 11.865l.266.464-34.202 62.902h21.343l23.528-43.284 23.531 43.284h21.343l-37.45-68.867c-6.693-12.394-15.044-26.248-31.417-26.248-5.369 0-10.405 1.326-15.177 3.976l9.677 17.367a10.619 10.619 0 015.435-1.46"/>
        <path fill="#00b600" d="M696.468 693.11l-26.209-29.03h-35.178c-19.709 0-37.84-11.956-47.229-31.158l-43.488-88.906v69.5l19.306 41.539c10.868 23.372 32.613 38.056 56.352 38.056z"/>
        <path fill="#00761e" d="M392.26 693.11l26.209-29.03h35.178c19.709 0 37.84-11.956 47.229-31.158l43.488-88.906v69.5l-19.306 41.539c-10.868 23.372-32.613 38.056-56.352 38.056z"/>
        <path fill="#00761e" d="M536.617 665.802c-5.89 11.049-13.81 20.289-23.122 27.31-12.867 9.712-28.379 15.147-44.792 15.147H392.26v18.24h61.937c77.591 0 82.331-59.458 82.42-60.697"/>
        <path fill="#00b600" d="M552.111 665.802c5.89 11.049 13.811 20.289 23.122 27.31 12.867 9.712 28.38 15.147 44.792 15.147h76.443v18.24h-61.937c-77.59 0-82.33-59.458-82.42-60.697"/>
        <path fill="#00b600" d="M552.111 700.552c5.89 11.049 13.811 20.289 23.122 27.31 12.867 9.712 28.38 15.147 44.792 15.147h76.443v18.24h-61.937c-77.59 0-82.33-59.458-82.42-60.697"/>
        <path fill="#00761e" d="M266.767 732.473a.93.93 0 01-.175.073c.102-.102.19-.219.277-.336-.03.088-.073.175-.102.263m0 0a.93.93 0 01-.175.073c.102-.102.19-.219.277-.336-.03.088-.073.175-.102.263m0 0a.93.93 0 01-.175.073c.102-.102.19-.219.277-.336-.03.088-.073.175-.102.263"/>
    </g>
    <path fill="url(#f)" d="M266.766 732.473a147.38 147.38 0 0049.433-37.814 116.734 116.734 0 01-1.766 10.347c-2.146 9.954-5.575 19.265-10.26 27.92-4.816 8.917-10.99 17.164-18.491 24.708-4.131 4.16-8.48 7.926-13.033 11.253-13.939 10.275-29.788 16.683-47.58 19.236 17.996-14.857 32.386-33.903 41.697-55.65" transform="matrix(1.31784 0 0 -1.31784 -30.178 1101.547)"/>
    <path fill="url(#g)" d="M129.372 757.328c-14.069-14.755-23.293-32.239-27.657-52.453 14.346 13.924 31.525 24.957 50.6 32.123.175.205.35.394.525.584a145.763 145.763 0 0017.675 46.221c-15.544-5.196-29.263-14.026-41.143-26.475" transform="matrix(1.31784 0 0 -1.31784 -30.178 1101.547)"/>
    <path fill="url(#h)" d="M170.515 783.803a145.763 145.763 0 01-17.675-46.221c13.982 15.208 31.671 22.811 53.038 22.811 22.213 0 40.69-7.341 55.401-22.023a53.624 53.624 0 001.547-1.576 86.21 86.21 0 003.766-4.247.89.89 0 00.174-.074c-9.311 21.747-23.701 40.793-41.697 55.65-5.896.847-12.011 1.27-18.331 1.27-13.018 0-25.088-1.853-36.223-5.59" transform="matrix(1.31784 0 0 -1.31784 -30.178 1101.547)"/>
    <path fill="url(#i)" d="M266.869 732.211c10.216-12.449 16.186-27.263 17.878-44.412.263-2.627.423-5.313.482-8.056a145.76 145.76 0 0031.568-12.858c.277 3.634.423 7.341.423 11.165 0 5.706-.335 11.253-1.021 16.609a147.38 147.38 0 01-49.433 37.814c.03-.087.074-.174.103-.262" transform="matrix(1.31784 0 0 -1.31784 -30.178 1101.547)"/>
    <path fill="url(#j)" d="M285.258 677.218c0-18.769-4.699-35.013-14.084-48.746-6.772-20.579-17.981-39.144-32.473-54.57a145.487 145.487 0 0129.234-9.165l11.178 16.594c15.383 23.001 25.586 40.851 30.591 53.548 3.825 9.69 6.189 20.36 7.093 32.006a145.76 145.76 0 01-31.568 12.858c.014-.832.029-1.678.029-2.525" transform="matrix(1.31784 0 0 -1.31784 -30.178 1101.547)"/>
    <path fill="url(#k)" d="M101.715 704.875c-1.955-9.092-2.934-18.74-2.934-28.942 0-7.895.686-15.543 2.087-22.942 2.132-11.516 5.955-22.403 11.457-32.722a116.65 116.65 0 015.707-9.56 146.313 146.313 0 0020.681 27.964 80.468 80.468 0 00-5.065 14.741c-1.81 7.399-2.7 15.339-2.7 23.804 0 23.979 7.05 43.842 21.177 59.576.059.073.132.146.19.204-19.075-7.166-36.254-18.199-50.6-32.123" transform="matrix(1.31784 0 0 -1.31784 -30.178 1101.547)"/>
    <path fill="url(#l)" d="M118.032 610.709a107.46 107.46 0 013.576-5.049c7.691-10.187 16.973-18.652 27.876-25.395 15.718-9.734 32.968-14.609 51.738-14.609 11.296 0 22.694 2.569 34.239 7.706.088-.832.161-1.678.277-2.51a115.57 115.57 0 012.963 3.05 146.02 146.02 0 00-34.516 21.046c-20.769.744-37.99 8.435-51.637 23.103-5.779 6.188-10.391 13.062-13.835 20.622a146.313 146.313 0 01-20.681-27.964" transform="matrix(1.31784 0 0 -1.31784 -30.178 1101.547)"/>
    <path fill="url(#m)" d="M263.03 618.372c-8.071-8.538-17.236-14.755-27.481-18.637-8.567-3.24-17.879-4.86-27.964-4.86-1.138 0-2.277.014-3.4.073a146.02 146.02 0 0134.516-21.046c14.492 15.426 25.701 33.991 32.473 54.57-2.393-3.533-5.108-6.889-8.144-10.1" transform="matrix(1.31784 0 0 -1.31784 -30.178 1101.547)"/>
    <path fill="url(#n)" d="M235.738 570.852c0-.044.015-.074.015-.117l-49.345-72.697h36.633l23.366 34.707 21.528 31.992a145.487 145.487 0 00-29.234 9.165 115.57 115.57 0 00-2.963-3.05" transform="matrix(1.31784 0 0 -1.31784 -30.178 1101.547)"/>
</svg>