<?xml version="1.0" encoding="UTF-8" standalone="no"?>
<svg xmlns="http://www.w3.org/2000/svg" width="276.56" height="94.427" viewBox="0 0 276.56 94.427">
    <defs>
        <clipPath id="a" clipPathUnits="userSpaceOnUse">
            <path d="M0 70.82h207.42V0H0z"/>
        </clipPath>
    </defs>
    <path fill="#93d0ac" d="M49.218 17.467H16.986v32.207z"/>
    <path fill="#005c65" d="M19.862 52.62h32.224V20.419z"/>
    <g clip-path="url(#a)" transform="matrix(1.33333 0 0 -1.33333 0 94.427)">
        <path fill="#231f20" d="M49.917 39.314c1.908 0 2.927.932 2.927 2.645v.087c0 1.843-1.084 2.56-2.927 2.56h-2.103v-5.292zm-4.987 7.524h4.987c3.47 0 5.746-1.54 5.746-4.792v-.087c0-3.274-2.364-4.727-5.68-4.727h-2.169v-5.897H44.93zm18.863-13.291c1.908 0 2.862.867 2.862 2.472v.087c0 1.583-.954 2.45-2.97 2.45h-2.473v-5.01zm.086-2.212H58.35v15.504h9.735v-2.277h-6.874v-3.925h2.732c3.405 0 5.486-1.454 5.486-4.554v-.086c0-2.993-1.994-4.663-5.551-4.663m8.39 15.504h2.884v-7.025l5.941 7.046h3.101l-6.419-7.415 6.744-8.109h-3.404l-5.963 7.242v-7.242h-2.884zM55.666 26.835h-3.18L47.77 21.24v5.576h-2.86V13.285h2.86v5.748l4.733-5.748h3.427l-5.875 7.065zm7.297-11.352c-2.342 0-3.916 1.81-3.916 4.502v.147c0 2.778 1.487 4.503 3.879 4.503 2.346 0 3.861-1.76 3.861-4.485v-.146c0-2.747-1.501-4.52-3.824-4.52m-.037 11.515c-3.968 0-6.849-2.895-6.849-6.885v-.147c0-4.042 2.817-6.866 6.849-6.866 4.011 0 6.812 2.846 6.812 6.922v.146c0 4.021-2.801 6.83-6.812 6.83m17.751-5.757h-5.465v5.575h-2.86V13.284h2.86v5.575h5.465v-5.575h2.878v13.533h-2.878zm8.632-1.256v.127c.014 1.909 1 2.869 3.1 3.008v-6.068c-2.085.136-3.1 1.097-3.1 2.933m9.04.202v-.143c-.028-1.913-.986-2.837-3.1-2.974v6.05c2.115-.133 3.1-1.07 3.1-2.933m-3.1 5.136v1.749h-2.84v-1.749c-3.715-.17-5.945-2.106-5.978-5.21v-.109c0-3.129 2.175-4.993 5.978-5.138v-1.766h2.84v1.767c3.716.149 5.946 2.072 5.979 5.173v.147c0 3.108-2.175 4.972-5.978 5.136m11.582-6.281h4.621v2.254h-4.62v3.174h5.757v2.346h-8.618V13.285h8.93v2.346h-6.07zm15.428 3.51v-.073c0-1.345-.761-2.027-2.264-2.027h-1.568v4.054h1.568c1.567 0 2.265-.603 2.265-1.954m-2.265 4.263h-4.428V13.284h2.86v4.987h1.623c3.187 0 5.015 1.534 5.015 4.21v.072c0 2.71-1.848 4.263-5.07 4.263m10.485-7.773h4.621v2.254h-4.62v3.174h5.757v2.346h-8.617V13.285h8.93v2.346h-6.07zm17.11 2.199h-5.465v5.575h-2.86V13.284h2.86v5.575h5.465v-5.575h2.878v13.533h-2.878zm17.055 5.575h-2.878v-11.15h-5.264v11.15h-2.878V13.285h9.947l.092-2.384h2.503v4.767h-1.522zm6.608-9.37v9.37h-2.878V13.283h2.786l5.759 9.42v-9.42h2.878v13.532h-2.785zm20.28 9.37l-5.76-9.37v9.37h-2.878V13.285h2.785l5.76 9.42v-9.42h2.878v13.532z"/>
    </g>
</svg>