<?xml version="1.0" encoding="UTF-8" standalone="no"?>
<svg xmlns="http://www.w3.org/2000/svg" width="700" height="240" viewBox="0 0 700 240">
  <path fill="#f04335" d="M243.53 153.49L160 213.78v-59l42.66-30.8 40.86 29.5"/>
  <path fill="#f3b72a" d="M155 28v59l-42.65 30.8-40.86-29.5L155 28"/>
  <path fill="#1a503d" d="M155 154.78v59l-84.96-61.35V93.44L155 154.78"/>
  <path fill="#28292a" d="M306.53 150.3a31.82 31.82 0 01-12.37-12.05 33.6 33.6 0 01-4.49-17.24c0-6.36 1.5-12.1 4.49-17.24a31.7 31.7 0 0112.42-12.05 36.38 36.38 0 0117.76-4.35c4.92 0 9.45.82 13.6 2.46a28.23 28.23 0 0110.59 7.18l-4.44 4.44c-5.17-5.22-11.68-7.84-19.56-7.84-5.23 0-9.98 1.2-14.26 3.6a26.23 26.23 0 00-10.07 9.82 27.23 27.23 0 00-3.63 13.98c0 5.16 1.2 9.82 3.63 13.98a26.2 26.2 0 0010.07 9.83 28.64 28.64 0 0014.26 3.59c7.94 0 14.46-2.65 19.56-7.94l4.44 4.44a28.6 28.6 0 01-10.63 7.23 36.53 36.53 0 01-13.65 2.5 36.08 36.08 0 01-17.72-4.34m85.79-3.64a16.8 16.8 0 006.42-6.76 20.57 20.57 0 002.32-9.82c0-3.65-.76-6.87-2.27-9.64a16.18 16.18 0 00-6.38-6.47 18.83 18.83 0 00-9.4-2.31c-3.52 0-6.66.77-9.4 2.31a16.5 16.5 0 00-6.42 6.47 19.48 19.48 0 00-2.32 9.64c0 3.65.77 6.93 2.32 9.82a16.7 16.7 0 006.47 6.76 18.3 18.3 0 009.35 2.4c3.47 0 6.57-.8 9.31-2.4zm4.06-37.98a21.56 21.56 0 018.46 8.6 25.84 25.84 0 013.02 12.61c0 4.85-1.05 9.15-3.16 12.9a22.25 22.25 0 01-8.84 8.74 26.62 26.62 0 01-13.04 3.11c-8.25 0-14.64-2.9-19.17-8.69-4.54-5.8-6.8-13.8-6.8-24 0-10.64 2.02-18.8 6.09-24.47 4.06-5.66 10.4-9.5 19.03-11.52l22.3-5.1L405.4 87l-20.97 4.82c-7.12 1.57-12.34 4.36-15.68 8.36-3.34 4-5.17 9.9-5.48 17.71a22.57 22.57 0 018.4-9.02 23.42 23.42 0 0112.38-3.26c4.6 0 8.7 1.02 12.33 3.07m55.84 37.51a16.8 16.8 0 006.56-6.85 21.19 21.19 0 002.37-10.11c0-3.78-.8-7.15-2.37-10.11a16.8 16.8 0 00-6.56-6.85c-2.8-1.6-5.97-2.4-9.5-2.4-3.53 0-6.7.8-9.5 2.4-2.8 1.6-5 3.89-6.6 6.85a20.87 20.87 0 00-2.41 10.1c0 3.79.8 7.16 2.4 10.12a17.1 17.1 0 006.62 6.85c2.8 1.6 5.96 2.4 9.5 2.4 3.52 0 6.68-.8 9.49-2.4zm-22.44 5.1a23.77 23.77 0 01-9.07-9.02 25.71 25.71 0 01-3.3-13.04c0-4.85 1.1-9.2 3.3-13.04a23.44 23.44 0 019.07-8.97 26.14 26.14 0 0112.94-3.22c4.79 0 9.1 1.08 12.95 3.22a23.12 23.12 0 019.02 8.97 26.02 26.02 0 013.26 13.04 26 26 0 01-3.26 13.04 23.45 23.45 0 01-9.02 9.02 25.84 25.84 0 01-12.95 3.26c-4.79 0-9.1-1.09-12.94-3.26m87.11-5.1a17.02 17.02 0 006.66-6.85c1.6-2.96 2.4-6.33 2.4-10.11 0-3.78-.8-7.13-2.4-10.06a17.44 17.44 0 00-6.66-6.85 18.55 18.55 0 00-9.45-2.46c-3.53 0-6.7.82-9.5 2.46-2.8 1.64-5 3.92-6.61 6.85a20.57 20.57 0 00-2.41 10.06c0 3.78.8 7.15 2.4 10.1a17.1 17.1 0 006.62 6.86c2.8 1.6 5.97 2.4 9.5 2.4 3.46 0 6.61-.8 9.45-2.4zm3.68-39.02a22.64 22.64 0 018.88 8.93 26.52 26.52 0 013.21 13.13 26.7 26.7 0 01-3.2 13.22 22.73 22.73 0 01-8.84 8.93 25.45 25.45 0 01-12.7 3.17 23.6 23.6 0 01-10.92-2.5 20.67 20.67 0 01-7.99-7.33v27.68h-6.7v-68.02h6.42v9.83a20.68 20.68 0 017.98-7.56 23.43 23.43 0 0111.2-2.65c4.66 0 8.88 1.06 12.66 3.17m44.59 24.8h-11.34v22.1h-6.7v-49.68h6.7v21.82h11.44l17.47-21.82h7.28l-19.56 24.1 20.98 25.6h-7.94l-18.33-22.11m60.37 14.68a15.52 15.52 0 006.05-7.51v-8.13h-15.59c-8.5 0-12.75 2.96-12.75 8.88 0 2.9 1.1 5.19 3.3 6.85 2.2 1.67 5.3 2.5 9.26 2.5 3.78 0 7.02-.86 9.73-2.6zm7.56-37.8c3.46 3.25 5.2 8.06 5.2 14.42v30.8h-6.43v-7.75a15.37 15.37 0 01-6.66 6.05c-2.93 1.44-6.4 2.17-10.44 2.17-5.54 0-9.95-1.32-13.22-3.97a12.81 12.81 0 01-4.92-10.49c0-4.22 1.53-7.62 4.59-10.2 3.05-2.58 7.92-3.87 14.6-3.87h15.77v-3.03c0-4.28-1.2-7.54-3.6-9.77-2.38-2.24-5.88-3.36-10.48-3.36-3.15 0-6.17.52-9.07 1.56a22.84 22.84 0 00-7.46 4.3l-3.02-5a26.83 26.83 0 019.07-4.97 35.3 35.3 0 0111.14-1.75c6.5 0 11.47 1.63 14.93 4.87m-330.53 63.5a9.73 9.73 0 015.15 8.78 9.83 9.83 0 01-5.15 8.84 11 11 0 01-5.38 1.32c-1.66 0-3.19-.26-4.57-.77a9.4 9.4 0 01-3.51-2.25l1.58-1.58a8.94 8.94 0 006.38 2.37 8.4 8.4 0 003.91-.9 7.72 7.72 0 004.18-6.16h-10.62v-2.04h10.58a7.46 7.46 0 00-2.65-4.85 8.13 8.13 0 00-5.4-1.87c-2.56 0-4.7.8-6.38 2.38l-1.58-1.55a9.39 9.39 0 013.5-2.24c1.4-.52 2.92-.78 4.58-.78 1.99 0 3.78.44 5.38 1.3m17.81 9.88h-4.54v8.84h-2.68v-19.87h2.68v8.73h4.57l6.99-8.73h2.9l-7.81 9.63 8.38 10.24h-3.17l-7.32-8.84m25.81 5.68a6.7 6.7 0 002.62-2.74c.63-1.18.95-2.53.95-4.04 0-1.5-.32-2.85-.95-4.04a6.72 6.72 0 00-2.62-2.74 7.51 7.51 0 00-3.8-.96 7.5 7.5 0 00-3.8.96c-1.11.65-2 1.56-2.64 2.74a8.33 8.33 0 00-.96 4.04c0 1.51.32 2.86.96 4.04a6.8 6.8 0 002.65 2.74 7.5 7.5 0 003.8.97 7.5 7.5 0 003.79-.97zm-8.97 2.04a9.48 9.48 0 01-3.63-3.6 10.28 10.28 0 01-1.32-5.22c0-1.94.44-3.67 1.32-5.2a9.36 9.36 0 013.63-3.6 10.45 10.45 0 015.17-1.28c1.91 0 3.64.43 5.18 1.28a9.24 9.24 0 013.6 3.6c.87 1.53 1.3 3.26 1.3 5.2 0 1.94-.43 3.68-1.3 5.22a9.36 9.36 0 01-3.6 3.6c-1.54.87-3.27 1.3-5.18 1.3a10.3 10.3 0 01-5.17-1.3m41.5-1.23v7.33h-2.53v-4.98h-18.16v-19.87h2.68v17.52h12.12v-17.52h2.68v17.52h3.21m7.91-13.54a7.19 7.19 0 00-2.2 4.78h14.08a7.2 7.2 0 00-2.2-4.77 6.8 6.8 0 00-4.86-1.84c-1.92 0-3.52.61-4.82 1.84zm14.41 6.78h-16.62a7.1 7.1 0 002.38 5 7.9 7.9 0 005.44 1.92c1.23 0 2.37-.22 3.4-.67a7.46 7.46 0 002.68-1.94l1.51 1.74a8.52 8.52 0 01-3.3 2.41c-1.32.56-2.78.83-4.36.83a11 11 0 01-5.42-1.3 9.39 9.39 0 01-3.69-3.6 10.28 10.28 0 01-1.32-5.22c0-1.94.42-3.67 1.27-5.2.84-1.54 2-2.74 3.47-3.6a9.7 9.7 0 014.97-1.28c1.83 0 3.49.43 4.95 1.28a9.13 9.13 0 013.43 3.57 10.75 10.75 0 011.25 5.23l-.04.83m5.77-10.76h2.69v8.8h12.5v-8.8h2.68v19.87H422v-8.77h-12.5v8.77h-2.68v-19.87m39.26 2.38h-7.51v17.49h-2.68V173.6h-7.52v-2.38h17.71v2.38m17.52 14.33a6.78 6.78 0 002.67-2.74 8.3 8.3 0 00.96-4.04 8.2 8.2 0 00-.96-4.02 6.95 6.95 0 00-2.66-2.74 7.41 7.41 0 00-3.78-.98 7.03 7.03 0 00-6.44 3.72 8.24 8.24 0 00-.96 4.02c0 1.51.32 2.86.96 4.04a6.83 6.83 0 002.64 2.74 7.5 7.5 0 003.8.97 7.6 7.6 0 003.78-.97zm1.48-15.6a9.04 9.04 0 013.55 3.57 10.6 10.6 0 011.28 5.25c0 2-.42 3.75-1.28 5.3a9.08 9.08 0 01-3.53 3.56c-1.5.84-3.2 1.26-5.08 1.26a9.4 9.4 0 01-4.36-1 8.27 8.27 0 01-3.2-2.92v11.06h-2.68v-27.19h2.57v3.93a8.27 8.27 0 013.2-3.02 9.37 9.37 0 014.47-1.06c1.86 0 3.55.42 5.06 1.27M155 87V28L71.5 88.3l40.86 29.5zm0 126.78v-59L70.04 93.44v58.99zm2.5-63.38l40.89-29.5-40.89-29.53-40.87 29.53zm2.51 63.38l83.52-60.3-40.86-29.5-42.67 30.8zm85.3-65.2V89.47L160 28v59zm4.99-61.57v67.77l-92.8 66.98L65 154.98V86.8L157.5 20l92.8 67"/>
</svg>