<?xml version="1.0" encoding="UTF-8"?>
<svg xmlns="http://www.w3.org/2000/svg" width="100" height="100" viewBox="0 0 100 100" preserveAspectRatio="none">
  <path fill="#444" d="M0 0h100v100H0z"/>
  <path fill="none" stroke="#b9f6ca" stroke-dasharray="1,1" d="M76.57 18.3s-1.187 1.9-1.691 0c-.504-1.902-2.133-8.488-2.79-8.96a8.99 8.99 0 01-1.01-.828s-.938 3.328-1.79 3.09c-2.316-.637-3.43-.454-4.883-4.196l-2.3-1.23s.812 5.656-.567 4.433c0 0 2.063 4.5-3.773 4.977 0 0 1.879 5.293 7.207 8.144 0 0 1.816 3.06-1.504 2.579 0 0-4.64-.676-5.262-1.29 0 0-2.453 5.165-5.96 5.364 0 0 4.206 2.582 3.698 7.129 0 0 8.086.07 7.778 1.425-.317 1.364-.88 2.747-.88 2.747s7.458-1.594 8.587-3.762c0 0 2.515 1.547 2.644 3.176 0 0 3.364-2.47 4.184-5.239 0 0 2.156 3.078 2.406 5.825l.879-.641s.246-3.25-1.57-5.488c0 0 3.988 1.078 8.125-2.117 0 0-4.57-1.626-4.758-3.391 0 0 8.539-5.703 8.906-9.504 0 0-3.078.34-4.707-1.086 0 0-2.07-.68.625-8.215 0 0-1.941 1.238-2.566-6.238 0 0-4.828 8-7.153 5.285.004 0-2.187 5.227-1.875 8.012zm0 0"/>
  <path fill="none" stroke="#b9f6ca" stroke-dasharray="1,1" d="M14.553 40.835l-.311.147c-.876.97-3.48 5.205-1.888 7.198 1.861 2.33-2.917 3.606-.682 6.777 2.081 2.948 3.405 3.218 2.438 8.808-.964 5.543 2.211 8.364 6.07 8.654 3.856.298 3.602 2.257 5.481 3.346.957.526.87 1.022 3.167 2.024 1.15.5 3.098 1.045 3.758-.242.646-1.306.715.32.758.423 0 0 2.256 7.092 1.69 10.126-.559 3.025 2.306-1.715 3.327-.588.78.863-2.314-6.984-4.394-11.343l-.11.308C28.353 63.733 18.374 49.771 17.376 48.2l.767.338c2.866 3.685 12.888 18.419 16.199 26.523.071-.23 1.205-1.416 1.267-1.648.313-1.147.33-1.598.492-2.662.273-2.116-1.985-2.834.145-5.976 2.136-3.153 1.994-7.538-3.068-10.206-5.106-2.693-4.73-4.327-5.828-7.74-1.173-3.68-5.516-.8-6.25-3.67-.624-2.45-5.211-2.392-6.547-2.321zm0 0"/>
</svg>