<?xml version="1.0" encoding="UTF-8"?>
<svg xmlns="http://www.w3.org/2000/svg" viewBox="0 0 64 64">
    <g fill="#fff">
        <path d="M59.131 24.553A6.962 6.962 0 0063 18.292V13c0-3.716-2.911-6.766-6.573-6.987L54.05 3.636A8.939 8.939 0 0047.687 1h-4.608A7.086 7.086 0 0036 8.079c0 2.162.968 4.176 2.657 5.527l1.701 1.361C40.007 17.884 40 19.883 40 20v1h2v.697c0 1.777.883 3.426 2.361 4.412a5.289 5.289 0 002.942.891h.271c.143 0 .284-.031.426-.042v3.622l-1.858.372a2.004 2.004 0 00-1.125.66l-1.201 1.401a19.963 19.963 0 00-3.029 4.787L35 43.586v-3.771A13.813 13.813 0 0021.185 26H21v-1.034a6.056 6.056 0 005.211-3.802c.524-1.308.789-2.685.789-4.094V13c0-.707-.151-1.377-.417-1.987A7.74 7.74 0 0029 5.414a4.382 4.382 0 00-1.293-3.121A4.382 4.382 0 0024.586 1h-8.05c-2.547 0-4.946.997-6.82 2.871C8.015 5.571 7 8.236 7 11c0 3.581 2.104 5.735 3.025 6.508a5.783 5.783 0 001.682 3.614l.293.292v4.598c-2.26.059-4.422.775-6.267 2.093A11.322 11.322 0 001 37.301V46c0 3.409 1.559 6.46 4 8.479V63h24v-6h2.687a8.94 8.94 0 006.364-2.636l.95-.95V63h24V37.854a8.885 8.885 0 00-.935-3.959 8.922 8.922 0 00-3.96-3.96L57 29.382v-3.764zM39.906 12.044A5.055 5.055 0 0138 8.079 5.084 5.084 0 0143.079 3h4.608c1.87 0 3.627.728 4.95 2.05L55.586 8H56c2.757 0 5 2.243 5 5v5.292a4.972 4.972 0 01-2.764 4.472l-1.996.998a5.435 5.435 0 01-1.017-2.057 7.906 7.906 0 01-.198-1.17C55.779 19.99 57 18.828 57 17c0-2.206-1.794-4-4-4h-.136c-.197-.693-.606-1.316-1.224-1.861C50.533 10.164 48.655 9 46 9c-2.21 0-4.357 1.061-4.447 1.105l-.438.219-.096.479c-.128.64-.239 1.262-.337 1.862zM48.382 34h-1.386l.003-1.18 2.193-.438zm-1.097 11.454l-1.254-2.257.857-7.197h1.31l1.429 6.43a18.882 18.882 0 01-2.342 3.024zm3.772-5.805l-1.004-4.519 1.623-3.245 1.852-.37-1.73 6.054c-.204.713-.46 1.403-.741 2.08zM50 26.62l3.196-.639-.393-1.961-4.582.917a3.331 3.331 0 01-.647.063h-.271a3.291 3.291 0 01-1.832-.555A3.295 3.295 0 0144 21.697V19h-1.971c.062-1.398.253-4.125.853-7.297C43.524 11.44 44.781 11 46 11c2.031 0 3.469.892 4.318 1.64.472.416.682.835.682 1.36v1h2c1.103 0 2 .897 2 2 0 1.342-1.438 2.101-1.447 2.105l-.553.277V20c0 .683.094 1.416.28 2.178a7.477 7.477 0 001.72 3.22v3.782l-5 1zm-5 8.121v.2l-.628 5.271-1.351-2.432A17.916 17.916 0 0145 34.741zm-12 5.074v5.771l-.535.535a3.023 3.023 0 01-2.123.879H29v-6h-2v6h-8v-2.802l6.356-15.437A11.817 11.817 0 0133 39.815zm-4 12.293a2.866 2.866 0 01-.847 2.043 2.866 2.866 0 01-2.026.849H25v.001h-2V49h3.006c1.648.003 2.991 1.354 2.994 3.108zM19.382 28l-1 2h-1.764l-1-2zm1.282 6.902l-.624-3.746 1.569-3.137c.61.022 1.215.084 1.808.198zM13.382 28l1.578 3.156-.497 2.98-2.862-6.082c.234-.018.464-.054.7-.054zm3.465 4h1.305l1.068 6.408-1.282 3.114-1.978-4.204zM25 17.07a8.967 8.967 0 01-.646 3.351 4.083 4.083 0 01-3.81 2.58c-.813 0-1.6-.238-2.276-.689l-1.714-1.143-1.109 1.664 1.714 1.143a6.093 6.093 0 001.84.814V26h-5v-5.414l-.879-.879A3.807 3.807 0 0112 17c0-.551.449-1 1-1h1v-3c0-1.654 1.346-3 3-3h5c1.654 0 3 1.346 3 3zm-14.428-1.828A6.441 6.441 0 019 11c0-2.245.796-4.382 2.194-5.78A7.513 7.513 0 0116.536 3h8.05c.635 0 1.258.258 1.707.707S27 4.779 27 5.414a5.723 5.723 0 01-1.598 3.944A4.966 4.966 0 0022 8h-5c-2.757 0-5 2.243-5 5v1.171a3.011 3.011 0 00-1.428 1.071zM3 46v-8.699a9.319 9.319 0 013.895-7.569 9.287 9.287 0 012.667-1.315L17 44.224V47h-6v-6H9v6a2 2 0 001.994 2H21v6.001L12 55c-4.962 0-9-4.037-9-9zm24 15H7v-5.214A10.916 10.916 0 0012 57l14.111.001h.001l.015-.001H27zm9.636-8.05a6.954 6.954 0 01-4.95 2.05H30.03c.622-.841.972-1.855.97-2.989s-.395-2.17-1.032-3.011h.374a5.04 5.04 0 003.538-1.465l5.551-5.551A19.876 19.876 0 0039 46.028v4.558zM41 46.028c0-2.037.357-4.039 1.019-5.934l3.763 6.773c-.137.116-.266.239-.407.352L45 47.52V61h-4zm16.211-14.304a6.9 6.9 0 013.065 3.065c.474.946.724 2.006.724 3.065V61h-6V45h-2v16h-6V48.474a20.948 20.948 0 006.721-10.355l2.013-7.045.126-.025z"/>
        <circle cx="50" cy="56" r="1"/>
        <circle cx="50" cy="52" r="1"/>
    </g>
</svg>